<svg width="329" height="68" viewBox="0 0 329 68" fill="none" xmlns="http://www.w3.org/2000/svg">
<path d="M58.5425 21.7291V16.4371L56.3558 20.4529H55.6654L53.4678 16.4371V21.7291H52.2988V14.3027H53.5558L56.012 18.8438L58.4682 14.3027H59.7252V21.7291H58.5397H58.5425Z" fill="white"/>
<path d="M63.5759 21.7291V14.3027H64.6761V21.7291H63.5759Z" fill="white"/>
<path d="M69.6918 16.4776V21.7264H68.5269V14.3027H69.4835L73.6772 19.6697V14.3137H74.853V21.7291H73.8306L69.6918 16.4803V16.4776Z" fill="white"/>
<path d="M78.4287 21.7291V14.3027H79.5289V21.7291H78.4287Z" fill="white"/>
<path d="M87.779 16.0714C87.6196 15.8984 87.3477 15.7307 86.9632 15.5684C86.5787 15.4088 86.1832 15.3277 85.7739 15.3277C85.2905 15.3277 84.9307 15.417 84.689 15.5927C84.4501 15.7685 84.3292 16.0173 84.3292 16.3392C84.3292 16.4392 84.343 16.5312 84.3704 16.6096C84.3979 16.6907 84.4336 16.7611 84.4748 16.8233C84.5187 16.8855 84.5819 16.945 84.6671 17.0018C84.7522 17.0586 84.8373 17.1072 84.9197 17.1478C85.0021 17.1884 85.1175 17.2316 85.2603 17.2749C85.4059 17.3209 85.5405 17.3587 85.6668 17.3912C85.7932 17.4237 85.958 17.4642 86.1612 17.5156C86.488 17.594 86.7655 17.6698 86.9989 17.7428C87.2296 17.8185 87.4521 17.9132 87.6663 18.0294C87.8806 18.1457 88.0536 18.2728 88.1827 18.4162C88.3118 18.5595 88.4134 18.7326 88.4903 18.9354C88.5672 19.141 88.6057 19.3735 88.6057 19.6332C88.6057 19.9253 88.559 20.1876 88.4656 20.4229C88.3722 20.6582 88.2431 20.8556 88.0811 21.0151C87.919 21.1747 87.7213 21.3099 87.4905 21.4208C87.2598 21.529 87.0099 21.6074 86.7462 21.6561C86.4798 21.7048 86.1942 21.7291 85.8893 21.7291C85.3235 21.7291 84.7797 21.6453 84.2523 21.4749C83.725 21.3045 83.2498 21.0611 82.8296 20.7447L83.3652 19.7549C83.5794 19.9712 83.9282 20.1822 84.4144 20.385C84.9005 20.5878 85.3976 20.6879 85.9113 20.6879C86.3727 20.6879 86.7297 20.6068 86.9797 20.4472C87.2296 20.2876 87.356 20.0551 87.356 19.7549C87.356 19.6332 87.3367 19.525 87.301 19.4276C87.2626 19.3303 87.1994 19.2437 87.106 19.1626C87.0154 19.0842 86.9193 19.0166 86.8231 18.9598C86.727 18.903 86.5897 18.8435 86.4111 18.784C86.2326 18.7245 86.0706 18.6731 85.9223 18.6325C85.7739 18.592 85.5734 18.5406 85.3235 18.4757C84.9335 18.3756 84.6094 18.2728 84.3539 18.1701C84.0985 18.0673 83.8733 17.9402 83.6783 17.7887C83.4833 17.6373 83.3404 17.4588 83.2526 17.2533C83.1647 17.0477 83.1207 16.8043 83.1207 16.5231C83.1207 16.1715 83.1894 15.8551 83.3267 15.5711C83.4641 15.2871 83.6536 15.0546 83.8953 14.8707C84.137 14.6868 84.4199 14.5461 84.7467 14.4488C85.0735 14.3514 85.4279 14.3027 85.8124 14.3027C86.7243 14.3027 87.5592 14.5786 88.3173 15.1276L87.7872 16.0714H87.779Z" fill="white"/>
<path d="M97.4071 15.3397H94.972V21.7291H93.8019V15.3397H91.356V14.3027H97.4071V15.3397Z" fill="white"/>
<path d="M105.659 20.6865V21.7291H100.433V14.2622H105.563V15.3048H101.632V17.4259H105.032V18.4077H101.632V20.6892H105.656L105.659 20.6865ZM103.526 13.4906L102.75 13.2583L103.362 12.1023H104.488L103.523 13.4878L103.526 13.4906Z" fill="white"/>
<path d="M108.959 21.7291V14.3027H112.165C112.486 14.3027 112.789 14.3715 113.078 14.5118C113.367 14.652 113.61 14.8363 113.806 15.0646C114.002 15.2929 114.157 15.5515 114.272 15.8403C114.386 16.1291 114.444 16.4234 114.444 16.7177C114.444 17.221 114.313 17.6776 114.048 18.0847C113.784 18.4918 113.438 18.7641 113.004 18.9043L114.735 21.7291H113.43L111.83 19.1436H110.118V21.7291H108.959ZM110.118 18.1067H112.154C112.476 18.1067 112.74 17.9719 112.95 17.6996C113.16 17.4273 113.263 17.1 113.263 16.7149C113.263 16.3299 113.146 16.0136 112.909 15.7413C112.672 15.4717 112.399 15.3342 112.088 15.3342H110.12V18.1039L110.118 18.1067Z" fill="white"/>
<path d="M118.036 21.7291V14.3027H119.136V21.7291H118.036Z" fill="white"/>
<path d="M122.437 18.0146C122.437 17.5316 122.528 17.0622 122.71 16.6118C122.893 16.1586 123.141 15.7652 123.456 15.4261C123.771 15.0869 124.153 14.8156 124.6 14.6093C125.048 14.4031 125.523 14.3027 126.026 14.3027C126.529 14.3027 127.027 14.4113 127.48 14.6256C127.93 14.84 128.309 15.1222 128.61 15.4749C128.911 15.8276 129.151 16.2238 129.326 16.6688C129.5 17.1137 129.588 17.5669 129.588 18.0281C129.588 18.5111 129.497 18.9778 129.314 19.4282C129.132 19.8786 128.883 20.2721 128.574 20.6112C128.262 20.9504 127.883 21.2217 127.436 21.4252C126.988 21.6287 126.513 21.7291 126.01 21.7291C125.592 21.7291 125.195 21.6613 124.819 21.5256C124.443 21.3899 124.111 21.2027 123.827 20.964C123.542 20.7252 123.293 20.4511 123.083 20.1364C122.873 19.8216 122.713 19.4852 122.603 19.1216C122.492 18.758 122.44 18.389 122.44 18.0146H122.437ZM126.018 20.6845C126.38 20.6845 126.714 20.6085 127.018 20.4538C127.322 20.2992 127.574 20.0957 127.767 19.8406C127.961 19.5856 128.112 19.3034 128.22 18.9859C128.328 18.6712 128.381 18.3456 128.381 18.0146C128.381 17.6835 128.322 17.3362 128.209 17.0133C128.096 16.6905 127.938 16.4083 127.737 16.1614C127.538 15.9145 127.286 15.7191 126.988 15.5726C126.689 15.4261 126.363 15.3528 126.015 15.3528C125.667 15.3528 125.319 15.4288 125.012 15.5834C124.705 15.7354 124.454 15.9389 124.255 16.1912C124.056 16.4435 123.901 16.7284 123.794 17.0432C123.683 17.3579 123.63 17.6835 123.63 18.0146C123.63 18.4785 123.724 18.9127 123.915 19.3143C124.106 19.7185 124.385 20.0468 124.755 20.3019C125.125 20.557 125.545 20.6845 126.018 20.6845Z" fill="white"/>
<path d="M137.565 21.7264V14.3027H140.23C140.82 14.3027 141.348 14.399 141.818 14.5914C142.288 14.7839 142.672 15.0506 142.973 15.3888C143.273 15.727 143.501 16.1201 143.657 16.5628C143.813 17.0082 143.891 17.4894 143.891 18.0063C143.891 19.1308 143.557 20.0299 142.892 20.709C142.224 21.3882 141.337 21.7291 140.23 21.7291H137.565V21.7264ZM140.23 15.3393H138.747V20.6898H140.23C140.747 20.6898 141.192 20.5716 141.565 20.3351C141.938 20.0987 142.219 19.7797 142.405 19.3783C142.592 18.9769 142.684 18.5177 142.684 18.0036C142.684 17.2117 142.467 16.5683 142.03 16.0762C141.593 15.584 140.995 15.3393 140.23 15.3393Z" fill="white"/>
<path d="M148.991 14.3027H150.095L152.968 21.7291H151.735L150.958 19.7102H148.104L147.332 21.7291H146.091L148.991 14.3027ZM150.73 18.8438L149.539 15.59L148.312 18.8438H150.728H150.73Z" fill="white"/>
<path d="M4.63856 29.164C5.33275 29.164 5.94494 29.313 6.47514 29.6138C7.00535 29.9147 7.40165 30.3168 7.66402 30.8201L6.1144 31.9532C6.04607 31.7761 5.95588 31.6242 5.84109 31.4977C5.72631 31.3712 5.59785 31.2728 5.45573 31.2053C5.31361 31.1378 5.1715 31.0872 5.03211 31.0591C4.89273 31.0282 4.74787 31.0141 4.59756 31.0141C4.31879 31.0141 4.07009 31.0731 3.85145 31.1884C3.63281 31.3037 3.45516 31.4612 3.32671 31.6524C3.19553 31.8464 3.09713 32.0573 3.02881 32.2878C2.96048 32.5184 2.92769 32.7574 2.92769 33.002C2.92769 33.5559 3.08074 34.0283 3.38957 34.422C3.6984 34.8156 4.10562 35.0124 4.61943 35.0124C4.81894 35.0124 5.01024 34.9843 5.19335 34.9253C5.37647 34.869 5.55139 34.7678 5.71811 34.6216C5.88482 34.4782 6.0078 34.2982 6.08706 34.0817L7.74053 35.094C7.60115 35.4539 7.35791 35.7688 7.01082 36.0443C6.66373 36.3199 6.27838 36.5252 5.85476 36.6573C5.43114 36.7895 5.00479 36.8569 4.57571 36.8569C4.04823 36.8569 3.55081 36.7445 3.08073 36.5167C2.61065 36.289 2.21709 35.9937 1.89733 35.6254C1.57757 35.257 1.32614 34.8381 1.1403 34.3657C0.95445 33.8933 0.864258 33.4153 0.864258 32.9317C0.864258 32.4481 0.95172 32.0095 1.12663 31.5596C1.30155 31.1125 1.54478 30.7104 1.85635 30.3505C2.16791 29.9906 2.56693 29.7038 3.05067 29.4845C3.53442 29.2652 4.06189 29.1555 4.63309 29.1555L4.63856 29.164Z" fill="white"/>
<path d="M10.491 36.5819V29.1555H12.4163V36.5819H10.491Z" fill="white"/>
<path d="M21.2182 34.7928V36.5819H15.9922V29.1042H21.1285V30.8933H18.0049V31.9485H20.6749V33.6102H18.0049V34.7928H21.2182ZM16.7527 28.1681L17.9234 26.9551H19.325L20.4957 28.1681L19.5015 28.6112L18.6242 27.9466L17.7469 28.6112L16.7527 28.1681Z" fill="white"/>
<path d="M26.2784 32.9292V36.5819H24.2437V29.1555H25.8308L28.8101 32.9292V29.1555H30.8449V36.5819H29.2275L26.2784 32.9292Z" fill="white"/>
<path d="M37.6474 29.164C38.3416 29.164 38.9538 29.313 39.484 29.6138C40.0142 29.9147 40.4105 30.3168 40.6729 30.8201L39.1232 31.9532C39.0549 31.7761 38.9647 31.6242 38.8499 31.4977C38.7351 31.3712 38.6067 31.2728 38.4646 31.2053C38.3225 31.1378 38.1803 31.0872 38.041 31.0591C37.9016 31.0282 37.7567 31.0141 37.6064 31.0141C37.3276 31.0141 37.0789 31.0731 36.8603 31.1884C36.6416 31.3037 36.464 31.4612 36.3356 31.6524C36.2044 31.8464 36.106 32.0573 36.0376 32.2878C35.9693 32.5184 35.9365 32.7574 35.9365 33.002C35.9365 33.5559 36.0896 34.0283 36.3984 34.422C36.7072 34.8156 37.1145 35.0124 37.6255 35.0124C37.825 35.0124 38.0164 34.9843 38.1995 34.9253C38.3826 34.8662 38.5575 34.7678 38.7242 34.6216C38.8909 34.4782 39.0139 34.2982 39.0932 34.0817L40.7466 35.094C40.6073 35.4539 40.364 35.7688 40.0169 36.0443C39.6698 36.3199 39.2845 36.5252 38.8609 36.6573C38.4372 36.7895 38.0109 36.8569 37.5818 36.8569C37.0543 36.8569 36.5569 36.7445 36.0868 36.5167C35.6168 36.289 35.2232 35.9937 34.9034 35.6254C34.5837 35.257 34.3322 34.8381 34.1464 34.3657C33.9606 33.8933 33.8704 33.4153 33.8704 32.9317C33.8704 32.4481 33.9578 32.0095 34.1327 31.5596C34.3077 31.1125 34.5509 30.7104 34.8624 30.3505C35.174 29.9906 35.573 29.7038 36.0568 29.4845C36.5405 29.2652 37.068 29.1555 37.6392 29.1555L37.6474 29.164Z" fill="white"/>
<path d="M43.4971 36.5819V29.1555H45.4224V36.5819H43.4971Z" fill="white"/>
<path d="M50.8691 29.1555H53.1894L55.5993 36.5819H53.492L53.0353 35.1269H51.0149L50.5665 36.5819H48.448L50.8691 29.1555ZM52.7018 33.7681L52.0293 31.1524L51.3259 33.7681H52.699H52.7018Z" fill="white"/>
<path d="M58.2957 38.2322L58.6738 36.5848H58.075V34.6565H59.7253V36.5848L59.1567 38.2322H58.2957Z" fill="white"/>
<path d="M72.9277 30.9323H70.7942V36.5819H68.7488V30.9323H66.6016V29.1555H72.925V30.9323H72.9277Z" fill="white"/>
<path d="M80.9042 34.8051V36.5819H75.6782V29.1555H80.8146V30.9323H77.6909V31.9803H80.361V33.6306H77.6909V34.8051H80.9042Z" fill="white"/>
<path d="M87.1567 29.164C87.8509 29.164 88.4631 29.313 88.9933 29.6138C89.5235 29.9147 89.9198 30.3168 90.1821 30.8201L88.6325 31.9532C88.5642 31.7761 88.474 31.6242 88.3592 31.4977C88.2444 31.3712 88.116 31.2728 87.9738 31.2053C87.8317 31.1378 87.6896 31.0872 87.5502 31.0591C87.4108 31.0282 87.266 31.0141 87.1157 31.0141C86.8369 31.0141 86.5882 31.0731 86.3696 31.1884C86.1509 31.3037 85.9733 31.4612 85.8448 31.6524C85.7136 31.8464 85.6152 32.0573 85.5469 32.2878C85.4786 32.5184 85.4458 32.7574 85.4458 33.002C85.4458 33.5559 85.5989 34.0283 85.9077 34.422C86.2165 34.8156 86.6237 35.0124 87.1348 35.0124C87.3343 35.0124 87.5256 34.9843 87.7087 34.9253C87.8918 34.8662 88.0668 34.7678 88.2335 34.6216C88.4002 34.4782 88.5232 34.2982 88.6024 34.0817L90.2559 35.094C90.1165 35.4539 89.8733 35.7688 89.5262 36.0443C89.1791 36.3199 88.7938 36.5252 88.3701 36.6573C87.9465 36.7895 87.5202 36.8569 87.0911 36.8569C86.5636 36.8569 86.0662 36.7445 85.5961 36.5167C85.126 36.289 84.7325 35.9937 84.4127 35.6254C84.0929 35.257 83.8415 34.8381 83.6557 34.3657C83.4698 33.8933 83.3796 33.4153 83.3796 32.9317C83.3796 32.4481 83.4671 32.0095 83.642 31.5596C83.8169 31.1125 84.0602 30.7104 84.3717 30.3505C84.6833 29.9906 85.0823 29.7038 85.5661 29.4845C86.0498 29.2652 86.5773 29.1555 87.1485 29.1555L87.1567 29.164Z" fill="white"/>
<path d="M95.0411 32.9292V36.5819H93.0063V29.1555H94.5935L97.5728 32.9292V29.1555H99.6076V36.5819H97.9902L95.0411 32.9292Z" fill="white"/>
<path d="M102.633 32.9851C102.633 32.4871 102.728 32.0059 102.915 31.5388C103.101 31.0745 103.359 30.6665 103.684 30.3148C104.008 29.9631 104.406 29.6817 104.872 29.4707C105.34 29.2596 105.839 29.1555 106.369 29.1555C106.9 29.1555 107.409 29.2653 107.877 29.4875C108.346 29.7098 108.738 30.0025 109.052 30.3655C109.366 30.7284 109.613 31.1421 109.791 31.6064C109.97 32.0706 110.059 32.5434 110.059 33.0273C110.059 33.5113 109.967 34.0009 109.781 34.4652C109.594 34.9295 109.339 35.3375 109.017 35.6892C108.692 36.0438 108.297 36.3251 107.829 36.539C107.36 36.7528 106.859 36.8569 106.331 36.8569C105.803 36.8569 105.294 36.7472 104.826 36.5277C104.358 36.3082 103.968 36.0184 103.651 35.6554C103.337 35.2925 103.088 34.8788 102.907 34.4145C102.725 33.9503 102.636 33.4719 102.636 32.9851H102.633ZM106.348 35.0083C106.626 35.0083 106.876 34.9492 107.095 34.8338C107.314 34.7156 107.49 34.5609 107.62 34.3667C107.75 34.1726 107.85 33.9587 107.918 33.7252C107.986 33.4916 108.018 33.2468 108.018 32.9879C108.018 32.6334 107.958 32.307 107.839 32.0144C107.72 31.7217 107.531 31.4797 107.271 31.2912C107.011 31.1027 106.7 31.007 106.337 31.007C106.058 31.007 105.812 31.0633 105.592 31.1787C105.376 31.294 105.2 31.446 105.07 31.6373C104.94 31.8286 104.84 32.0425 104.772 32.276C104.704 32.5096 104.672 32.7544 104.672 33.0076C104.672 33.2609 104.707 33.5169 104.775 33.7533C104.842 33.9897 104.945 34.2007 105.078 34.392C105.21 34.5806 105.386 34.7325 105.606 34.8451C105.825 34.9576 106.069 35.0111 106.345 35.0111L106.348 35.0083Z" fill="white"/>
<path d="M113.085 36.5819V29.1555H115.157V34.8051H118.586V36.5819H113.085Z" fill="white"/>
<path d="M120.786 32.9851C120.786 32.4871 120.881 32.0059 121.068 31.5388C121.255 31.0745 121.512 30.6665 121.837 30.3148C122.162 29.9631 122.56 29.6817 123.025 29.4707C123.494 29.2596 123.992 29.1555 124.523 29.1555C125.053 29.1555 125.562 29.2653 126.031 29.4875C126.499 29.7098 126.892 30.0025 127.206 30.3655C127.52 30.7284 127.766 31.1421 127.945 31.6064C128.123 32.0706 128.213 32.5434 128.213 33.0273C128.213 33.5113 128.121 34.0009 127.934 34.4652C127.747 34.9295 127.493 35.3375 127.17 35.6892C126.846 36.0438 126.45 36.3251 125.982 36.539C125.513 36.7528 125.013 36.8569 124.485 36.8569C123.957 36.8569 123.448 36.7472 122.979 36.5277C122.511 36.3082 122.121 36.0184 121.804 35.6554C121.49 35.2925 121.241 34.8788 121.06 34.4145C120.878 33.9503 120.789 33.4719 120.789 32.9851H120.786ZM124.501 35.0083C124.78 35.0083 125.029 34.9492 125.248 34.8338C125.467 34.7156 125.643 34.5609 125.773 34.3667C125.903 34.1726 126.004 33.9587 126.071 33.7252C126.139 33.4916 126.171 33.2468 126.171 32.9879C126.171 32.6334 126.112 32.307 125.993 32.0144C125.874 31.7217 125.684 31.4797 125.424 31.2912C125.164 31.1027 124.853 31.007 124.49 31.007C124.211 31.007 123.965 31.0633 123.746 31.1787C123.529 31.294 123.353 31.446 123.223 31.6373C123.093 31.8286 122.993 32.0425 122.925 32.276C122.858 32.5096 122.825 32.7544 122.825 33.0076C122.825 33.2609 122.86 33.5169 122.928 33.7533C122.996 33.9897 123.098 34.2007 123.231 34.392C123.364 34.5806 123.54 34.7325 123.759 34.8451C123.978 34.9576 124.222 35.0111 124.498 35.0111L124.501 35.0083Z" fill="white"/>
<path d="M135.048 32.76H138.115V36.8063H136.423V36.1732C135.896 36.629 135.286 36.8569 134.587 36.8569C134.099 36.8569 133.635 36.7669 133.202 36.5868C132.766 36.4067 132.382 36.1535 132.048 35.8299C131.714 35.5035 131.452 35.0927 131.256 34.5946C131.06 34.0966 130.963 33.5451 130.963 32.9429C130.963 32.4167 131.063 31.9215 131.261 31.4544C131.46 30.9873 131.728 30.5849 132.067 30.2501C132.407 29.9124 132.813 29.6479 133.285 29.451C133.757 29.254 134.259 29.1555 134.789 29.1555C135.462 29.1555 136.069 29.3047 136.613 29.6001C137.157 29.8956 137.563 30.3007 137.828 30.8129L136.31 32.0003C136.166 31.702 135.945 31.46 135.647 31.28C135.349 31.0999 135.037 31.007 134.709 31.007C134.223 31.007 133.826 31.1955 133.511 31.5726C133.199 31.9496 133.042 32.4308 133.042 33.0189C133.042 33.607 133.199 34.0966 133.516 34.4624C133.834 34.8282 134.248 35.0111 134.758 35.0111C135.344 35.0111 135.868 34.7606 136.337 34.2626H135.046V32.7628L135.048 32.76Z" fill="white"/>
<path d="M141.14 36.5819V29.1555H143.066V36.5819H141.14Z" fill="white"/>
<path d="M148.237 29.1555H150.558L152.967 36.5819H150.86L150.403 35.1269H148.383L147.935 36.5819H145.816L148.237 29.1555ZM150.07 33.7681L149.397 31.1524L148.694 33.7681H150.067H150.07Z" fill="white"/>
<path d="M77.3285 49.6578V51.4347H72.1025V44.0083H77.2389V45.7851H74.1152V46.8331H76.7853V48.4834H74.1152V49.6578H77.3285Z" fill="white"/>
<path d="M84.7549 51.4347V44.0083H86.6802V51.4347H84.7549Z" fill="white"/>
<path d="M92.2906 47.782V51.4347H90.2559V44.0083H91.843L94.8224 47.782V44.0083H96.8571V51.4347H95.2397L92.2906 47.782Z" fill="white"/>
<path d="M99.8828 47.7011C99.8828 47.2209 99.9776 46.7569 100.164 46.3065C100.351 45.8588 100.608 45.4654 100.933 45.1262C101.258 44.787 101.656 44.5157 102.122 44.3122C102.59 44.1087 103.088 44.0083 103.619 44.0083C104.15 44.0083 104.659 44.1141 105.127 44.3285C105.595 44.5428 105.988 44.825 106.302 45.175C106.616 45.5251 106.862 45.9239 107.041 46.3716C107.22 46.8193 107.309 47.2751 107.309 47.7418C107.309 48.2085 107.217 48.6806 107.03 49.1283C106.844 49.576 106.589 49.9695 106.267 50.3086C105.942 50.6505 105.547 50.9219 105.078 51.1281C104.61 51.3343 104.109 51.4347 103.581 51.4347C103.053 51.4347 102.544 51.3289 102.076 51.1172C101.607 50.9056 101.218 50.6261 100.901 50.2761C100.587 49.9261 100.338 49.5272 100.156 49.0795C99.9749 48.6318 99.8855 48.1705 99.8855 47.7011H99.8828ZM103.597 49.652C103.876 49.652 104.125 49.595 104.345 49.4838C104.564 49.3698 104.74 49.2206 104.87 49.0334C105 48.8462 105.1 48.6399 105.168 48.4147C105.235 48.1895 105.268 47.9535 105.268 47.7039C105.268 47.362 105.208 47.0472 105.089 46.765C104.97 46.4829 104.78 46.2495 104.521 46.0677C104.261 45.8859 103.949 45.7937 103.587 45.7937C103.308 45.7937 103.061 45.8479 102.842 45.9592C102.625 46.0704 102.449 46.2169 102.319 46.4015C102.19 46.586 102.089 46.7922 102.022 47.0174C101.954 47.2426 101.921 47.4786 101.921 47.7228C101.921 47.967 101.957 48.214 102.024 48.4419C102.092 48.6698 102.195 48.8733 102.328 49.0578C102.46 49.2396 102.636 49.3861 102.856 49.4946C103.075 49.6032 103.318 49.6547 103.595 49.6547L103.597 49.652Z" fill="white"/>
<path d="M111.378 44.0083L112.821 49.0802L114.25 44.0083H116.386L113.834 51.4347H111.816L109.234 44.0083H111.381H111.378Z" fill="white"/>
<path d="M120.457 44.0083H122.778L125.187 51.4347H123.08L122.623 49.9797H120.603L120.155 51.4347H118.036L120.457 44.0083ZM122.29 48.6209L121.617 46.0052L120.914 48.6209H122.287H122.29Z" fill="white"/>
<path d="M133.714 49.7291C133.533 50.1652 133.205 50.5282 132.729 50.8207C132.251 51.1133 131.723 51.3029 131.146 51.3896C131.485 51.7254 131.654 52.0857 131.654 52.4703C131.654 52.7981 131.548 53.0744 131.332 53.2992C131.115 53.524 130.804 53.6351 130.393 53.6351C129.983 53.6351 129.551 53.5186 129.108 53.2829L129.565 52.2807C129.718 52.4107 129.882 52.4757 130.062 52.4757C130.191 52.4757 130.295 52.4405 130.377 52.3674C130.459 52.2943 130.5 52.1968 130.5 52.0722C130.5 51.8609 130.369 51.6333 130.103 51.3923C129.63 51.3354 129.187 51.1891 128.774 50.9535C128.364 50.7178 128.016 50.428 127.738 50.084C127.459 49.7399 127.237 49.3553 127.078 48.9328C126.92 48.5102 126.838 48.0795 126.838 47.6461C126.838 47.2127 126.925 46.7576 127.1 46.3243C127.275 45.8936 127.519 45.5062 127.831 45.1595C128.142 44.8128 128.542 44.5365 129.026 44.3252C129.51 44.1139 130.038 44.0083 130.609 44.0083C131.304 44.0083 131.917 44.1519 132.448 44.4417C132.978 44.7315 133.375 45.1189 133.637 45.6037L132.086 46.6953C132.018 46.5247 131.928 46.3784 131.813 46.2565C131.698 46.1346 131.57 46.0398 131.427 45.9748C131.285 45.9098 131.143 45.8611 131.003 45.834C130.864 45.8042 130.719 45.7906 130.568 45.7906C130.289 45.7906 130.041 45.8475 129.822 45.9586C129.603 46.0696 129.425 46.2213 129.297 46.4055C129.165 46.5924 129.067 46.7956 128.998 47.0177C128.93 47.2398 128.897 47.47 128.897 47.7057C128.897 48.2393 129.05 48.6944 129.359 49.0736C129.669 49.4528 130.076 49.6424 130.588 49.6424C130.787 49.6424 130.979 49.6153 131.162 49.5585C131.345 49.5016 131.52 49.4068 131.687 49.2659C131.854 49.1278 131.977 48.9544 132.056 48.7458L133.711 49.721L133.714 49.7291Z" fill="white"/>
<path d="M138.335 43.9527H140.656L143.066 51.4346H140.958L140.502 49.9687H138.481L138.033 51.4346H135.914L138.335 43.9527ZM138.803 42.9606C138.714 42.9606 138.635 42.9773 138.568 43.0133C138.501 43.0465 138.453 43.0881 138.422 43.1324C138.392 43.1768 138.366 43.2267 138.349 43.2849C138.333 43.3403 138.321 43.3818 138.319 43.4096C138.316 43.4373 138.313 43.4567 138.313 43.4733H137.237C137.237 43.3902 137.254 43.2849 137.287 43.1574C137.321 43.0299 137.377 42.8858 137.453 42.7279C137.531 42.5699 137.624 42.423 137.733 42.2873C137.842 42.1515 137.982 42.0379 138.156 41.9464C138.33 41.855 138.518 41.8079 138.719 41.8079C138.876 41.8079 139.025 41.8356 139.168 41.8938C139.311 41.952 139.426 42.0129 139.515 42.0794C139.605 42.1459 139.709 42.2069 139.823 42.2651C139.938 42.3205 140.048 42.351 140.157 42.351C140.244 42.351 140.322 42.3316 140.39 42.2956C140.46 42.2595 140.51 42.218 140.546 42.1681C140.58 42.121 140.611 42.0683 140.633 42.0102C140.656 41.9547 140.67 41.9104 140.678 41.8771C140.687 41.8439 140.689 41.8217 140.689 41.8079H141.757C141.757 41.8661 141.74 41.9547 141.704 42.0767C141.67 42.1958 141.611 42.3371 141.533 42.5006C141.454 42.6641 141.359 42.8165 141.247 42.9579C141.135 43.0992 140.989 43.2211 140.81 43.3237C140.631 43.4262 140.437 43.4761 140.233 43.4761C140.087 43.4761 139.944 43.4483 139.804 43.3957C139.664 43.343 139.546 43.2849 139.456 43.2211C139.364 43.1574 139.26 43.0992 139.142 43.0465C139.025 42.9939 138.913 42.9662 138.809 42.9662L138.803 42.9606ZM140.168 48.6026L139.496 45.9673L138.792 48.6026H140.165H140.168Z" fill="white"/>
<path d="M144.991 47.7011C144.991 47.2209 145.086 46.7569 145.273 46.3065C145.459 45.8588 145.717 45.4654 146.041 45.1262C146.366 44.787 146.764 44.5157 147.23 44.3122C147.698 44.1087 148.197 44.0083 148.727 44.0083C149.258 44.0083 149.767 44.1141 150.235 44.3285C150.704 44.5428 151.096 44.825 151.41 45.175C151.724 45.5251 151.971 45.9239 152.149 46.3716C152.328 46.8193 152.417 47.2751 152.417 47.7418C152.417 48.2085 152.325 48.6806 152.138 49.1283C151.952 49.576 151.697 49.9695 151.375 50.3086C151.05 50.6505 150.655 50.9219 150.186 51.1281C149.718 51.3343 149.217 51.4347 148.689 51.4347C148.161 51.4347 147.652 51.3289 147.184 51.1172C146.716 50.9056 146.326 50.6261 146.009 50.2761C145.695 49.9261 145.446 49.5272 145.264 49.0795C145.083 48.6318 144.994 48.1705 144.994 47.7011H144.991ZM148.705 49.652C148.984 49.652 149.233 49.595 149.453 49.4838C149.672 49.3698 149.848 49.2206 149.978 49.0334C150.108 48.8462 150.208 48.6399 150.276 48.4147C150.343 48.1895 150.376 47.9535 150.376 47.7039C150.376 47.362 150.316 47.0472 150.197 46.765C150.078 46.4829 149.889 46.2495 149.629 46.0677C149.369 45.8859 149.057 45.7937 148.695 45.7937C148.416 45.7937 148.169 45.8479 147.95 45.9592C147.734 46.0704 147.558 46.2169 147.428 46.4015C147.298 46.586 147.197 46.7922 147.13 47.0174C147.062 47.2426 147.03 47.4786 147.03 47.7228C147.03 47.967 147.065 48.214 147.133 48.4419C147.2 48.6698 147.303 48.8733 147.436 49.0578C147.568 49.2396 147.744 49.3861 147.964 49.4946C148.183 49.6032 148.427 49.6547 148.703 49.6547L148.705 49.652Z" fill="white"/>
<path d="M194.543 63.4806C194.543 63.6866 194.529 63.879 194.499 64.0606C194.469 64.2422 194.419 64.4183 194.345 64.5891C194.271 64.7598 194.18 64.9062 194.068 65.0282C193.955 65.1501 193.812 65.2477 193.636 65.3236C193.46 65.3968 193.26 65.4347 193.032 65.4347C192.804 65.4347 192.609 65.3995 192.435 65.3263C192.26 65.2531 192.117 65.1583 192.007 65.0363C191.894 64.917 191.801 64.7707 191.727 64.5999C191.652 64.4292 191.6 64.253 191.57 64.0687C191.54 63.8844 191.523 63.6893 191.523 63.4806V60.7134H190.649V63.4806C190.649 63.7733 190.674 64.0497 190.726 64.3072C190.779 64.5674 190.864 64.814 190.982 65.0498C191.1 65.2856 191.251 65.4889 191.43 65.657C191.611 65.825 191.836 65.9578 192.108 66.0581C192.38 66.1584 192.688 66.2071 193.032 66.2071C193.444 66.2071 193.809 66.1367 194.123 65.993C194.436 65.8494 194.686 65.6515 194.873 65.3995C195.06 65.1474 195.197 64.8574 195.29 64.5376C195.381 64.2151 195.428 63.8627 195.428 63.4806V60.7134H194.546V63.4806H194.543ZM201.995 64.6596L198.86 60.7161H198.145V66.1719H199.016V62.3124L202.11 66.1719H202.874V60.7215H201.995V64.6596ZM205.677 66.1719H206.548V60.7161H205.677V66.1719ZM210.952 60.7161L208.785 66.1719H209.713L210.29 64.6894H212.425L213.008 66.1719H213.928L211.78 60.7161H210.955H210.952ZM210.447 64.0525L211.365 61.662L212.255 64.0525H210.447ZM210.48 59.9897C210.488 59.9572 210.502 59.9193 210.527 59.8705C210.549 59.8217 210.59 59.781 210.645 59.7458C210.7 59.7133 210.768 59.6943 210.851 59.6943C210.942 59.6943 211.04 59.7214 211.142 59.7756C211.244 59.8298 211.356 59.8867 211.48 59.9409C211.601 59.9951 211.73 60.0222 211.865 60.0222C211.999 60.0222 212.112 59.9951 212.222 59.9409C212.329 59.8867 212.414 59.8217 212.477 59.7485C212.541 59.6726 212.596 59.5913 212.64 59.5046C212.684 59.4179 212.714 59.342 212.73 59.2796C212.747 59.2173 212.755 59.1685 212.755 59.136H212.263C212.263 59.136 212.263 59.1658 212.258 59.1875C212.252 59.2092 212.244 59.2417 212.225 59.2796C212.205 59.3176 212.183 59.3528 212.153 59.3853C212.123 59.4179 212.082 59.4477 212.027 59.4721C211.972 59.4965 211.909 59.51 211.837 59.51C211.733 59.51 211.628 59.4829 211.521 59.426C211.414 59.3691 211.304 59.3122 211.186 59.2579C211.071 59.201 210.947 59.1739 210.818 59.1739C210.697 59.1739 210.584 59.1983 210.485 59.2498C210.384 59.3013 210.304 59.3637 210.246 59.4368C210.186 59.51 210.136 59.5913 210.095 59.678C210.054 59.7648 210.024 59.8407 210.01 59.9057C209.994 59.9708 209.988 60.0223 209.988 60.0602H210.472C210.472 60.0439 210.474 60.0195 210.483 59.987L210.48 59.9897ZM220.19 61.5509C219.965 61.2907 219.685 61.0793 219.352 60.9194C219.017 60.7595 218.66 60.6781 218.275 60.6781C217.891 60.6781 217.55 60.754 217.217 60.9058C216.885 61.0576 216.602 61.2609 216.368 61.5129C216.135 61.765 215.951 62.0604 215.816 62.3965C215.681 62.7325 215.613 63.0822 215.613 63.4426C215.613 63.7191 215.654 63.9955 215.734 64.2666C215.816 64.5376 215.934 64.7897 216.088 65.0227C216.245 65.2558 216.429 65.4618 216.64 65.638C216.852 65.8169 217.096 65.9551 217.377 66.0554C217.657 66.1556 217.951 66.2071 218.259 66.2071C218.632 66.2071 218.984 66.1313 219.317 65.9795C219.649 65.8277 219.929 65.6271 220.16 65.3724C220.391 65.1203 220.575 64.8249 220.71 64.4915C220.844 64.1554 220.913 63.8085 220.913 63.4481C220.913 63.0876 220.847 62.7678 220.718 62.4371C220.589 62.1065 220.413 61.8083 220.188 61.5481L220.19 61.5509ZM219.902 64.169C219.822 64.4048 219.71 64.6162 219.564 64.8059C219.418 64.9956 219.234 65.1474 219.009 65.2612C218.784 65.3751 218.536 65.4347 218.267 65.4347C217.918 65.4347 217.605 65.3398 217.33 65.1501C217.055 64.9604 216.849 64.7138 216.709 64.4156C216.569 64.1148 216.497 63.7923 216.497 63.4481C216.497 63.2014 216.539 62.9602 216.618 62.7244C216.701 62.4886 216.813 62.2772 216.962 62.0902C217.11 61.9032 217.297 61.7514 217.522 61.6376C217.748 61.5238 217.998 61.4668 218.267 61.4668C218.536 61.4668 218.767 61.521 218.987 61.6295C219.209 61.7379 219.394 61.8842 219.542 62.0685C219.69 62.2528 219.806 62.4642 219.891 62.7027C219.976 62.9412 220.017 63.1906 220.017 63.4481C220.017 63.7055 219.976 63.9359 219.896 64.1717L219.902 64.169ZM227.725 63.7462H230.195V63.0307H227.725V61.4804H230.58V60.7188H226.854V66.1746H230.648V65.413H227.727V63.7462H227.725ZM240.403 63.4968C240.601 63.1987 240.7 62.8626 240.7 62.494C240.7 62.2772 240.656 62.0604 240.57 61.849C240.485 61.6376 240.367 61.4452 240.221 61.2798C240.076 61.1118 239.892 60.9763 239.675 60.8733C239.458 60.7703 239.23 60.7188 238.988 60.7188H236.578V66.1746H237.449V64.2747H238.735L239.936 66.1746H240.917L239.614 64.0985C239.938 63.9955 240.199 63.795 240.397 63.4968H240.403ZM238.979 63.5131H237.449V61.4777H238.93C239.164 61.4777 239.37 61.578 239.546 61.7758C239.724 61.9737 239.812 62.2122 239.812 62.4913C239.812 62.7705 239.732 63.0144 239.576 63.215C239.419 63.4128 239.219 63.5131 238.979 63.5131ZM244.156 63.7462H246.626V63.0307H244.156V61.4804H247.011V60.7188H243.285V66.1746H247.08V65.413H244.156V63.7462ZM252.834 65.058C252.666 65.1962 252.49 65.2965 252.309 65.3534C252.127 65.413 251.941 65.4428 251.751 65.4428C251.416 65.4428 251.111 65.3507 250.833 65.1637C250.556 64.9767 250.344 64.7327 250.193 64.4265C250.042 64.1202 249.968 63.7923 249.968 63.4399C249.968 63.2475 249.992 63.0578 250.039 62.8708C250.086 62.6838 250.16 62.5049 250.259 62.3341C250.358 62.1634 250.476 62.0143 250.613 61.8869C250.751 61.7595 250.916 61.6566 251.108 61.5807C251.3 61.5048 251.509 61.4668 251.732 61.4668C251.872 61.4668 252.007 61.4831 252.141 61.5129C252.273 61.5427 252.408 61.5888 252.54 61.6538C252.671 61.7189 252.792 61.8083 252.905 61.9249C253.018 62.0414 253.108 62.1769 253.183 62.3368L253.867 61.8815C253.683 61.521 253.405 61.2338 253.04 61.0169C252.674 60.8001 252.248 60.6917 251.762 60.6917C251.435 60.6917 251.127 60.7432 250.836 60.8489C250.547 60.9519 250.297 61.0928 250.086 61.2717C249.874 61.4506 249.693 61.6538 249.539 61.8842C249.385 62.1146 249.27 62.3612 249.196 62.6241C249.119 62.8843 249.08 63.1499 249.08 63.4128C249.08 63.757 249.146 64.0985 249.278 64.4346C249.41 64.7707 249.589 65.0715 249.817 65.3371C250.045 65.6027 250.325 65.8169 250.657 65.9795C250.99 66.1421 251.344 66.2234 251.721 66.2234C252.018 66.2234 252.314 66.1746 252.608 66.0798C252.902 65.9849 253.172 65.8385 253.419 65.6407C253.666 65.4428 253.842 65.2152 253.952 64.955L253.224 64.5484C253.133 64.7517 253.001 64.9225 252.834 65.0607V65.058ZM260.475 61.5536C260.25 61.2934 259.969 61.082 259.637 60.9221C259.302 60.7622 258.945 60.6809 258.56 60.6809C258.175 60.6809 257.835 60.7567 257.502 60.9085C257.17 61.0603 256.887 61.2636 256.653 61.5156C256.419 61.7677 256.235 62.0631 256.101 62.3992C255.966 62.7353 255.897 63.0849 255.897 63.4454C255.897 63.7218 255.939 63.9983 256.018 64.2693C256.101 64.5403 256.219 64.7924 256.373 65.0255C256.529 65.2585 256.713 65.4645 256.925 65.6407C257.137 65.8196 257.381 65.9578 257.661 66.0581C257.942 66.1584 258.236 66.2098 258.543 66.2098C258.917 66.2098 259.269 66.134 259.601 65.9822C259.934 65.8304 260.214 65.6298 260.445 65.3751C260.676 65.123 260.86 64.8276 260.994 64.4942C261.129 64.1582 261.198 63.8112 261.198 63.4508C261.198 63.0903 261.132 62.7705 261.003 62.4398C260.874 62.1092 260.698 61.811 260.472 61.5509L260.475 61.5536ZM260.187 64.1717C260.107 64.4075 259.994 64.6189 259.849 64.8086C259.703 64.9983 259.519 65.1501 259.294 65.264C259.068 65.3778 258.821 65.4374 258.552 65.4374C258.203 65.4374 257.889 65.3426 257.615 65.1528C257.34 64.9631 257.134 64.7165 256.994 64.4183C256.854 64.1175 256.782 63.795 256.782 63.4508C256.782 63.2041 256.823 62.9629 256.903 62.7271C256.985 62.4913 257.098 62.2799 257.246 62.0929C257.395 61.9059 257.582 61.7541 257.807 61.6403C258.035 61.5265 258.282 61.4695 258.552 61.4695C258.821 61.4695 259.052 61.5238 259.272 61.6322C259.494 61.7406 259.678 61.8869 259.827 62.0712C259.975 62.2555 260.09 62.4669 260.176 62.7054C260.261 62.9439 260.302 63.1933 260.302 63.4508C260.302 63.7083 260.261 63.9386 260.181 64.1744L260.187 64.1717ZM267.515 64.6623L264.38 60.7188H263.665V66.1746H264.536V62.3152L267.63 66.1746H268.394V60.7242H267.515V64.6623ZM274.769 63.7516C274.673 63.6459 274.544 63.5483 274.384 63.4616C274.225 63.3749 274.057 63.3044 273.887 63.2475C273.714 63.1906 273.505 63.1337 273.263 63.0768C273.112 63.0388 272.988 63.009 272.895 62.9846C272.801 62.9602 272.7 62.9331 272.593 62.8979C272.485 62.8626 272.4 62.8328 272.337 62.803C272.274 62.7732 272.213 62.738 272.15 62.6946C272.087 62.6512 272.04 62.6079 272.007 62.5618C271.974 62.5157 271.95 62.4615 271.93 62.4019C271.911 62.3423 271.9 62.2745 271.9 62.1986C271.9 61.9574 271.988 61.7731 272.169 61.6403C272.348 61.5102 272.617 61.4424 272.977 61.4424C273.282 61.4424 273.576 61.5021 273.865 61.6213C274.151 61.7406 274.354 61.8653 274.472 61.9953L274.868 61.2907C274.302 60.8814 273.681 60.6754 272.999 60.6754C272.714 60.6754 272.447 60.7107 272.205 60.7838C271.961 60.857 271.749 60.9627 271.57 61.0982C271.389 61.2365 271.249 61.4099 271.147 61.6213C271.046 61.8327 270.993 62.0685 270.993 62.3314C270.993 62.5428 271.026 62.7244 271.092 62.8762C271.158 63.0307 271.265 63.1635 271.411 63.2746C271.557 63.3884 271.724 63.4833 271.914 63.5592C272.104 63.6378 272.345 63.7137 272.637 63.7868C272.823 63.8356 272.975 63.8736 273.084 63.9034C273.194 63.9332 273.315 63.9711 273.45 64.0172C273.582 64.0633 273.686 64.1067 273.758 64.1473C273.829 64.1907 273.901 64.2395 273.969 64.2991C274.038 64.3587 274.085 64.4238 274.115 64.4969C274.142 64.5701 274.156 64.6514 274.156 64.7409C274.156 64.9658 274.063 65.1393 273.876 65.2585C273.689 65.3778 273.422 65.4374 273.079 65.4374C272.697 65.4374 272.323 65.3615 271.963 65.2098C271.601 65.058 271.342 64.9008 271.18 64.7382L270.782 65.4781C271.095 65.7166 271.45 65.8982 271.842 66.0228C272.235 66.1502 272.642 66.2126 273.065 66.2126C273.293 66.2126 273.508 66.1936 273.705 66.1584C273.903 66.1231 274.087 66.0635 274.261 65.9822C274.434 65.9009 274.579 65.8006 274.703 65.6813C274.824 65.5621 274.92 65.413 274.991 65.2396C275.06 65.0634 275.096 64.8683 275.096 64.6514C275.096 64.4563 275.068 64.2828 275.011 64.1311C274.953 63.9793 274.876 63.8492 274.78 63.7435L274.769 63.7516ZM277.008 61.4804H278.855V66.1746H279.737V61.4804H281.575V60.7188H277.008V61.4804ZM287.694 63.4968C287.892 63.1987 287.991 62.8626 287.991 62.494C287.991 62.2772 287.947 62.0604 287.862 61.849C287.777 61.6376 287.659 61.4452 287.513 61.2798C287.365 61.1118 287.183 60.9763 286.966 60.8733C286.749 60.7703 286.521 60.7188 286.279 60.7188H283.872V66.1746H284.743V64.2747H286.029L287.233 66.1746H288.214L286.911 64.0985C287.235 63.9955 287.496 63.795 287.694 63.4968ZM286.271 63.5131H284.74V61.4777H286.221C286.455 61.4777 286.661 61.578 286.837 61.7758C287.016 61.9737 287.103 62.2122 287.103 62.4913C287.103 62.7705 287.024 63.0144 286.867 63.215C286.711 63.4128 286.51 63.5131 286.271 63.5131ZM294.385 63.4833C294.385 63.6893 294.371 63.8817 294.341 64.0633C294.311 64.2449 294.261 64.4211 294.187 64.5918C294.113 64.7626 294.022 64.9089 293.91 65.0309C293.797 65.1528 293.654 65.2504 293.478 65.3263C293.302 65.3995 293.102 65.4374 292.874 65.4374C292.646 65.4374 292.451 65.4022 292.277 65.329C292.102 65.2558 291.959 65.161 291.849 65.039C291.736 64.9198 291.643 64.7734 291.569 64.6026C291.494 64.4319 291.442 64.2557 291.412 64.0714C291.382 63.8871 291.365 63.692 291.365 63.4833V60.7161H290.491V63.4833C290.491 63.776 290.516 64.0525 290.568 64.3099C290.621 64.5701 290.706 64.8168 290.824 65.0526C290.942 65.2884 291.093 65.4916 291.272 65.6597C291.453 65.8277 291.678 65.9605 291.95 66.0608C292.223 66.1611 292.53 66.2098 292.874 66.2098C293.286 66.2098 293.651 66.1394 293.965 65.9957C294.278 65.8521 294.528 65.6542 294.715 65.4022C294.902 65.1474 295.039 64.8601 295.132 64.5403C295.223 64.2178 295.27 63.8654 295.27 63.4833V60.7161H294.388V63.4833H294.385ZM301.389 65.058C301.221 65.1962 301.046 65.2965 300.864 65.3534C300.683 65.413 300.496 65.4428 300.306 65.4428C299.971 65.4428 299.666 65.3507 299.389 65.1637C299.111 64.9767 298.9 64.7327 298.748 64.4265C298.597 64.1202 298.523 63.7923 298.523 63.4399C298.523 63.2475 298.548 63.0578 298.595 62.8708C298.641 62.6838 298.715 62.5049 298.814 62.3341C298.913 62.1634 299.031 62.0143 299.169 61.8869C299.306 61.7595 299.471 61.6566 299.663 61.5807C299.856 61.5048 300.065 61.4668 300.287 61.4668C300.427 61.4668 300.562 61.4831 300.697 61.5129C300.828 61.5427 300.963 61.5888 301.095 61.6538C301.227 61.7189 301.348 61.8083 301.46 61.9249C301.573 62.0414 301.664 62.1769 301.738 62.3368L302.422 61.8815C302.238 61.521 301.961 61.2338 301.595 61.0169C301.23 60.8001 300.804 60.6917 300.317 60.6917C299.99 60.6917 299.683 60.7432 299.391 60.8489C299.103 60.9519 298.853 61.0928 298.641 61.2717C298.43 61.4506 298.248 61.6538 298.094 61.8842C297.941 62.1146 297.825 62.3612 297.751 62.6241C297.674 62.8843 297.636 63.1499 297.636 63.4128C297.636 63.7435 297.696 64.0687 297.817 64.3912C297.938 64.7138 298.103 65.0065 298.314 65.2667C298.526 65.5269 298.784 65.7437 299.092 65.9171C299.4 66.0906 299.729 66.1909 300.084 66.218C300.364 66.3969 300.501 66.5893 300.501 66.7871C300.501 66.9037 300.46 66.9931 300.378 67.0555C300.295 67.1178 300.18 67.1476 300.034 67.1476C299.864 67.1476 299.68 67.0934 299.482 66.985L299.265 67.4403C299.556 67.5867 299.861 67.6626 300.183 67.6626C300.452 67.6626 300.661 67.5975 300.809 67.4674C300.96 67.3373 301.035 67.1612 301.035 66.9416C301.035 66.6679 300.9 66.4213 300.636 66.2017C301.048 66.1448 301.425 66.0066 301.774 65.787C302.12 65.5675 302.367 65.2911 302.507 64.955L301.779 64.5484C301.688 64.7517 301.557 64.9225 301.389 65.0607V65.058ZM306.39 60.7188L304.222 66.1746H305.151L305.728 64.6921H307.863L308.445 66.1746H309.366L307.217 60.7188H306.393H306.39ZM305.884 64.0552L306.802 61.6647L307.692 64.0552H305.884ZM305.917 59.9924C305.926 59.9599 305.939 59.922 305.964 59.8732C305.986 59.8244 306.027 59.7837 306.082 59.7485C306.137 59.716 306.206 59.697 306.288 59.697C306.379 59.697 306.478 59.7241 306.579 59.7783C306.681 59.8325 306.794 59.8894 306.917 59.9437C307.038 59.9979 307.167 60.025 307.302 60.025C307.437 60.025 307.549 59.9979 307.659 59.9437C307.766 59.8894 307.852 59.8244 307.915 59.7512C307.978 59.6753 308.033 59.594 308.077 59.5073C308.121 59.4206 308.151 59.3447 308.168 59.2823C308.184 59.22 308.192 59.1712 308.192 59.1387H307.701C307.701 59.1387 307.701 59.1685 307.695 59.1902C307.69 59.2119 307.681 59.2444 307.662 59.2823C307.643 59.3203 307.621 59.3555 307.591 59.388C307.56 59.4206 307.519 59.4504 307.464 59.4748C307.409 59.4992 307.346 59.5127 307.275 59.5127C307.17 59.5127 307.066 59.4856 306.959 59.4287C306.852 59.3718 306.742 59.3149 306.623 59.2607C306.508 59.2037 306.384 59.1766 306.255 59.1766C306.134 59.1766 306.022 59.201 305.923 59.2525C305.824 59.304 305.741 59.3664 305.684 59.4395C305.623 59.5127 305.574 59.594 305.533 59.6808C305.491 59.7675 305.461 59.8434 305.447 59.9084C305.431 59.9735 305.425 60.025 305.425 60.0629H305.909C305.909 60.0466 305.912 60.0223 305.92 59.9897L305.917 59.9924ZM316.158 62.4425C316.029 62.1119 315.853 61.8138 315.628 61.5536C315.402 61.2934 315.125 61.082 314.79 60.9221C314.455 60.7622 314.097 60.6809 313.713 60.6809C313.328 60.6809 312.987 60.7567 312.655 60.9085C312.322 61.0603 312.039 61.2636 311.806 61.5156C311.572 61.7677 311.388 62.0631 311.251 62.3992C311.116 62.7353 311.047 63.0849 311.047 63.4454C311.047 63.7218 311.089 63.9983 311.168 64.2693C311.251 64.5403 311.369 64.7924 311.523 65.0255C311.679 65.2585 311.863 65.4645 312.075 65.6407C312.287 65.8196 312.531 65.9578 312.811 66.0581C313.092 66.1584 313.386 66.2098 313.693 66.2098C314.067 66.2098 314.419 66.134 314.751 65.9822C315.084 65.8304 315.364 65.6298 315.595 65.3751C315.826 65.1203 316.01 64.8276 316.144 64.4942C316.279 64.1582 316.348 63.8112 316.348 63.4508C316.348 63.0903 316.282 62.7705 316.153 62.4398L316.158 62.4425ZM315.339 64.1717C315.26 64.4075 315.147 64.6189 315.001 64.8086C314.856 64.9983 314.672 65.1501 314.446 65.264C314.221 65.3778 313.974 65.4374 313.704 65.4374C313.355 65.4374 313.042 65.3426 312.767 65.1528C312.493 64.9631 312.287 64.7165 312.146 64.4183C312.006 64.1175 311.935 63.795 311.935 63.4508C311.935 63.2041 311.976 62.9629 312.056 62.7271C312.138 62.4913 312.251 62.2799 312.399 62.0929C312.545 61.9059 312.734 61.7541 312.96 61.6403C313.185 61.5265 313.435 61.4695 313.704 61.4695C313.974 61.4695 314.204 61.5238 314.424 61.6322C314.647 61.7406 314.831 61.8869 314.979 62.0712C315.128 62.2555 315.246 62.4669 315.328 62.7054C315.413 62.9439 315.455 63.1933 315.455 63.4508C315.455 63.7083 315.413 63.9386 315.334 64.1744L315.339 64.1717Z" fill="white"/>
<path d="M193.567 4.73618H195.463C195.299 5.19515 194.82 5.57116 194.076 5.57116C193.01 5.57116 192.273 4.79977 192.273 3.73531C192.273 2.67084 193.01 1.84968 194.045 1.84968C194.708 1.84968 195.279 2.17317 195.59 2.73443L197.206 1.76397C196.549 0.669093 195.359 0.00276485 194.062 0.00276485C192.009 0.00276485 190.374 1.65061 190.374 3.72425C190.374 5.79788 192.001 7.42638 194.073 7.42638C196.021 7.42638 197.491 5.98866 197.491 3.77678V3.22381H193.565V4.73618H193.567ZM203.803 0.00276485C201.742 0.00276485 200.105 1.65061 200.105 3.71319C200.105 5.77576 201.742 7.42361 203.803 7.42361C205.864 7.42361 207.483 5.77576 207.483 3.71319C207.483 1.65061 205.845 0.00276485 203.803 0.00276485ZM203.803 5.4661C202.861 5.4661 202.135 4.71683 202.135 3.71595C202.135 2.71508 202.861 1.96304 203.803 1.96304C204.746 1.96304 205.441 2.71508 205.441 3.71595C205.441 4.71683 204.727 5.4661 203.803 5.4661ZM212.951 4.53711L211.314 0.168656H209.272L211.998 7.25772H213.894L216.65 0.168656H214.608L212.951 4.53711ZM219.126 7.25772H224.171V5.52693H221.033V4.47352H223.105V2.95286H221.033V1.89945H224.171V0.168656H219.126V7.25772ZM232.948 2.47177C232.948 1.15847 231.89 0.168656 230.513 0.168656H227.106V7.25772H228.98V4.80807H229.777L231.176 7.25772H233.278L231.714 4.52605C232.462 4.13068 232.948 3.37864 232.948 2.47177ZM230.307 3.19063H228.98V1.86627H230.307C230.763 1.86627 231.033 2.1787 231.033 2.5326C231.033 2.8865 230.752 3.19063 230.307 3.19063ZM240.337 3.90949L237.488 0.165891H235.891V7.25495H237.765V3.52241L240.604 7.25495H242.208V0.168656H240.334V3.91226L240.337 3.90949ZM248.647 0C246.586 0 244.948 1.64785 244.948 3.71042C244.948 5.773 246.586 7.42085 248.647 7.42085C250.708 7.42085 252.326 5.773 252.326 3.71042C252.326 1.64785 250.689 0 248.647 0ZM248.647 5.46333C247.704 5.46333 246.979 4.71406 246.979 3.71319C246.979 2.71231 247.704 1.96028 248.647 1.96028C249.589 1.96028 250.285 2.71231 250.285 3.71319C250.285 4.71406 249.57 5.46333 248.647 5.46333ZM259.721 7.25772H261.628V4.67259H263.7V3.06621H261.628V1.86627H264.766V0.168656H259.721V7.25772ZM267.616 7.25772H272.661V5.52693H269.523V4.47352H271.595V2.95286H269.523V1.89945H272.661V0.168656H267.616V7.25772ZM278.462 0.168656H275.593V7.25772H278.462C280.608 7.25772 282.224 5.74535 282.224 3.71319C282.224 1.68103 280.608 0.168656 278.462 0.168656ZM278.368 5.41357H277.508V2.01557H278.368C279.487 2.01557 280.254 2.6819 280.254 3.71595C280.254 4.75 279.487 5.41633 278.368 5.41633V5.41357ZM284.958 7.25772H290.003V5.52693H286.865V4.47352H288.937V2.95286H286.865V1.89945H290.003V0.168656H284.958V7.25772ZM298.78 2.47177C298.78 1.15847 297.722 0.168656 296.345 0.168656H292.938V7.25772H294.812V4.80807H295.609L297.008 7.25772H299.11L297.546 4.52605C298.291 4.13068 298.78 3.37864 298.78 2.47177ZM296.137 3.19063H294.809V1.86627H296.137C296.593 1.86627 296.862 2.1787 296.862 2.5326C296.862 2.8865 296.582 3.19063 296.137 3.19063ZM304.136 0.165891L301.193 7.25495H303.171L303.658 6.03566H306.444L306.941 7.25495H308.909L305.936 0.165891H304.133H304.136ZM304.342 4.34634L305.045 2.60448L305.749 4.34634H304.339H304.342ZM313.385 5.43016V0.168656H311.385V7.25772H316.348V5.43292H313.385V5.43016Z" fill="white"/>
<path d="M260.765 41.1116L267.05 51.7097H272.246V31.6828H260.765V41.1144V41.1116ZM276.82 28.6713H272.906V51.7069H276.82C283.154 51.7069 288.309 46.5389 288.309 40.1878C288.309 33.8366 283.154 28.6686 276.82 28.6686V28.6713ZM268.687 31.0182H272.246V15.1279H268.69C264.319 15.1279 260.765 18.691 260.765 23.0731C260.765 27.4551 264.319 31.0154 268.687 31.0182ZM205.906 15.9139V36.9584H219.543L205.906 15.9139ZM303.976 39.2005H316.158V15.1307H303.976V39.2005ZM286.142 15.1307H272.906V28.0122H286.142V15.1307ZM316.818 39.8623V51.7097H329V39.8623H316.818ZM303.976 51.7097H316.158V39.8623H303.976V51.7097ZM288.966 51.7097H301.148V15.1307H288.966V51.7097ZM260.765 51.7097H266.286L260.765 42.405V51.7097ZM200.331 22.2733C200.331 18.3352 197.135 15.1334 193.21 15.1334H190.567V29.4132H193.21C197.138 29.4132 200.331 26.2086 200.331 22.2733ZM177.722 29.4132H189.904V15.1334H177.722V29.4132ZM177.722 51.7097H189.904V30.0723H177.722V51.7097ZM194.456 30.0723H190.564V51.7097H194.456C200.405 51.7097 205.246 46.856 205.246 40.891C205.246 34.9259 200.405 30.0723 194.456 30.0723ZM226.057 47.0022L223.265 51.7097H229.11L226.057 47.0022ZM226.433 46.3679L229.896 51.7097H230.9C230.986 48.0777 232.457 44.6746 235.054 42.1182C237.667 39.5424 241.118 38.1249 244.774 38.1249C248.429 38.1249 251.881 39.5424 254.494 42.1182C257.088 44.6746 258.562 48.0777 258.647 51.7097H260.105V41.2936L244.774 15.4478L226.433 46.3679ZM231.038 26.0459C231.038 20.0285 226.153 15.1307 220.151 15.1307H206.184L220.33 36.9584C226.238 36.8619 231.038 31.9751 231.038 26.0459ZM244.777 38.7841C241.297 38.7841 238.01 40.1326 235.518 42.5843C233.048 45.0166 231.643 48.2542 231.56 51.7069H257.993C257.908 48.2515 256.505 45.0138 254.035 42.5843C251.546 40.1326 248.259 38.7841 244.779 38.7841H244.777ZM219.975 37.6203H205.909V51.7069H222.5L225.658 46.3817L219.972 37.6203H219.975Z" fill="white"/>
</svg>
